# xmcd
#
# Track frame offsets:
#	150
#	13900
#	27819
#	40735
#	54400
#	75064
#	87457
#	100694
#	117408
#	129066
#	151334
#	171984
#
# Disc length: 2591 seconds
#
# Revision: 1
# Processed by: cddbd v1.5.2PL0 Copyright (c) Steve Scherf et al.
# Submitted via: audiograbber 1.83.01
#
DISCID=820a1d0c
DTITLE=Jump 4 Joy - Tasty!
DYEAR=2009
DGENRE=Blues/funk
TTITLE0=Monkey
TTITLE1=People
TTITLE2=Crossroads
TTITLE3=I Will
TTITLE4=How Long Ago
TTITLE5=Love In A Clock (1234)
TTITLE6=Sweet Little Woman
TTITLE7=Corner Of The Bar
TTITLE8=Tell Me Why
TTITLE9=Hoodoo Voodoo Man
TTITLE10=All Over This World
TTITLE11=Quantico
EXTD=
EXTT0=
EXTT1=
EXTT2=
EXTT3=
EXTT4=
EXTT5=
EXTT6=
EXTT7=
EXTT8=
EXTT9=
EXTT10=
EXTT11=
PLAYORDER=
